# xmcd
#
# Track frame offsets: 
#        150
#        16469
#        31260
#        48897
#        75187
#
# Disc length: 1282 seconds
#
# Revision: 4
# Processed by: cddbd v1.5.2PL0 Copyright (c) Steve Scherf et al.
# Submitted via: ExactAudioCopy v1.0b3
#
DISCID=28050005
DTITLE=王若琳 - Start From Here [CD2)
DYEAR=2008
DGENRE=Pop-Folk
TTITLE0=迷宫
TTITLE1=有你的快乐
TTITLE2=Now
TTITLE3=因为你爱我
TTITLE4=For No Reason
EXTD=YEAR: 2008
EXTT0=
EXTT1=
EXTT2=
EXTT3=
EXTT4=
PLAYORDER=
